<?xml version="1.0" standalone="no"?>
<!DOCTYPE svg PUBLIC "-//W3C//DTD SVG 20010904//EN"
 "http://www.w3.org/TR/2001/REC-SVG-20010904/DTD/svg10.dtd">
<svg version="1.0" xmlns="http://www.w3.org/2000/svg"
 width="2112.000000pt" height="2112.000000pt" viewBox="0 0 2112.000000 2112.000000"
 preserveAspectRatio="xMidYMid meet">
<metadata>
Created by potrace 1.14, written by Peter Selinger 2001-2017
</metadata>
<g transform="translate(0.000000,2112.000000) scale(0.100000,-0.100000)"
fill="#000000" stroke="none">
<path d="M7388 13854 c-2 -2 -22 -6 -44 -10 -65 -10 -187 -62 -250 -105 -143
-100 -233 -221 -286 -384 -19 -60 -16 -266 6 -340 37 -128 136 -267 254 -355
40 -29 152 -91 152 -83 0 3 7 0 15 -7 8 -7 15 -9 15 -5 0 4 6 3 13 -2 46 -37
298 -48 426 -19 122 28 295 132 347 208 11 16 25 28 32 28 6 0 12 6 12 14 0 8
3 16 8 18 30 13 111 192 120 268 30 237 -32 419 -196 574 -96 91 -193 150
-292 176 -25 7 -54 14 -65 17 -24 7 -262 13 -267 7z"/>
<path d="M17887 13584 c-1 -1 -49 -5 -107 -8 -140 -9 -212 -17 -305 -33 -22
-4 -43 -6 -47 -5 -4 1 -19 -2 -32 -8 -14 -5 -46 -12 -72 -15 -25 -3 -50 -7
-53 -10 -4 -2 -18 -6 -32 -8 -59 -11 -308 -88 -364 -113 -16 -7 -59 -25 -95
-39 -70 -29 -289 -139 -330 -166 -14 -9 -70 -46 -125 -82 -55 -36 -111 -74
-123 -84 -75 -58 -149 -120 -163 -135 -9 -10 -19 -18 -21 -18 -12 0 -175 -170
-264 -275 -67 -79 -204 -268 -204 -281 0 -3 -11 -20 -25 -38 -14 -18 -25 -36
-25 -39 0 -4 -15 -30 -33 -59 -45 -71 -136 -260 -185 -383 -38 -96 -113 -324
-117 -355 -1 -8 -8 -35 -14 -60 -7 -25 -15 -52 -16 -60 -2 -8 -8 -35 -14 -60
-5 -25 -12 -61 -16 -80 -3 -19 -7 -46 -10 -60 -2 -14 -7 -41 -9 -60 -3 -19 -8
-46 -10 -60 -7 -40 -23 -179 -33 -285 -7 -79 -7 -672 0 -755 11 -137 18 -206
23 -221 2 -9 7 -38 9 -65 3 -27 12 -87 20 -134 9 -47 18 -96 20 -110 23 -139
124 -468 196 -635 49 -115 156 -324 176 -343 7 -7 16 -24 19 -38 3 -13 10 -24
15 -24 5 0 9 -7 9 -15 0 -8 5 -15 10 -15 6 0 10 -6 10 -13 0 -8 9 -22 20 -32
11 -10 20 -23 20 -30 0 -6 8 -20 18 -31 10 -10 32 -39 49 -64 45 -65 153 -193
237 -280 106 -111 313 -290 334 -290 6 0 12 -4 14 -9 3 -9 181 -131 191 -131
3 0 22 -11 42 -24 59 -40 291 -150 420 -199 133 -50 265 -89 265 -79 0 4 4 2
8 -4 6 -9 35 -17 140 -39 12 -2 32 -7 45 -9 12 -3 37 -7 56 -10 18 -3 40 -8
50 -10 9 -3 33 -6 54 -8 20 -1 37 -5 37 -8 0 -3 21 -6 48 -7 82 -2 159 -10
170 -17 6 -3 13 -2 17 4 4 6 13 7 23 2 23 -12 547 -4 547 8 0 1 23 3 51 6 48
3 99 11 99 14 0 1 11 3 25 5 14 1 46 6 72 9 117 15 568 148 606 178 6 6 12 8
12 5 0 -3 26 8 57 24 31 16 63 29 70 29 7 0 13 4 13 8 0 4 17 14 38 21 20 8
39 17 42 20 3 3 23 15 45 26 22 11 70 39 108 62 37 24 71 43 76 43 5 0 11 4
13 8 2 5 26 23 53 42 28 19 56 40 63 47 7 7 16 13 20 13 4 0 23 14 42 31 19
16 60 51 90 77 134 115 278 269 380 407 25 33 47 62 50 65 10 9 115 173 154
240 20 36 41 72 46 80 20 33 94 189 122 255 16 39 36 84 44 101 7 17 15 40 17
50 1 11 6 24 9 30 29 46 131 441 152 589 4 23 8 50 10 60 6 32 19 137 22 175
1 19 3 35 4 35 2 0 5 35 15 205 10 163 12 426 4 468 -4 17 -3 35 2 38 5 3 6
10 3 16 -4 5 -8 40 -10 76 -6 106 -12 194 -18 232 -2 19 -8 58 -12 85 -20 144
-29 199 -40 245 -8 34 -13 59 -20 95 -3 17 -12 57 -21 90 -8 33 -16 65 -18 70
-1 6 -4 17 -7 25 -3 8 -13 42 -23 75 -26 90 -108 310 -117 313 -4 2 -8 10 -8
18 0 22 -131 280 -164 324 -6 8 -16 24 -22 35 -20 37 -39 69 -47 79 -4 6 -33
47 -64 91 -98 139 -197 257 -313 370 -146 142 -160 155 -160 147 0 -4 -4 -2
-8 4 -26 39 -350 264 -379 264 -7 0 -13 5 -13 10 0 6 -4 10 -8 10 -4 0 -50 23
-102 50 -52 28 -95 50 -95 49 0 0 -26 11 -59 25 -32 14 -61 26 -63 26 -3 0
-19 7 -36 15 -33 15 -201 74 -227 80 -8 1 -40 10 -71 19 -55 16 -74 21 -133
32 -16 2 -33 7 -36 9 -4 3 -25 7 -46 10 -22 4 -46 8 -54 10 -21 6 -65 12 -131
20 -31 3 -67 8 -79 10 -54 10 -484 27 -493 19z m310 -1198 c105 -13 120 -15
224 -39 66 -16 157 -47 216 -73 18 -8 35 -15 38 -15 2 0 32 -15 66 -34 33 -19
65 -35 70 -35 5 0 9 -4 9 -10 0 -5 5 -10 11 -10 49 0 387 -320 389 -367 0 -7
4 -13 9 -13 5 0 19 -17 32 -37 12 -21 31 -51 41 -68 10 -16 42 -77 71 -135
114 -227 178 -448 221 -770 28 -205 29 -760 2 -920 -3 -14 -7 -45 -10 -70 -3
-25 -8 -56 -11 -70 -3 -14 -8 -39 -10 -56 -16 -111 -120 -452 -144 -474 -3 -3
-7 -12 -9 -20 -4 -22 -56 -124 -64 -128 -5 -2 -8 -12 -8 -23 0 -10 -4 -19 -10
-19 -5 0 -10 -5 -10 -11 0 -17 -86 -144 -151 -224 -53 -66 -192 -205 -204
-205 -3 0 -18 -11 -33 -25 -15 -14 -47 -38 -72 -52 -25 -14 -47 -29 -50 -33
-19 -26 -306 -144 -380 -157 -14 -2 -41 -8 -60 -13 -154 -40 -456 -47 -650
-16 -14 3 -25 5 -25 6 0 1 -9 3 -20 5 -168 24 -404 125 -565 240 -82 60 -229
197 -265 249 -11 15 -25 34 -32 41 -70 74 -232 377 -272 510 -7 22 -15 47 -18
55 -3 8 -7 20 -9 25 -1 6 -11 44 -23 85 -23 87 -57 260 -66 340 -4 30 -8 66
-10 80 -25 160 -24 666 0 841 3 20 7 54 10 75 4 40 8 65 21 144 9 50 11 59 14
63 2 3 6 22 13 62 7 42 53 200 78 265 110 295 270 532 476 709 75 64 186 136
283 184 47 22 90 42 95 43 6 1 35 11 65 22 68 25 147 47 215 58 17 3 41 7 55
10 14 2 63 7 110 11 47 3 86 6 87 7 6 5 207 -2 260 -8z"/>
<path d="M17914 11009 c-86 -16 -226 -77 -274 -119 -14 -12 -36 -32 -50 -44
-70 -59 -172 -226 -186 -304 -3 -15 -9 -45 -14 -66 -14 -63 -4 -224 18 -292
49 -151 143 -276 263 -355 24 -16 49 -32 54 -36 13 -10 133 -54 160 -59 68
-11 115 -16 150 -16 70 1 160 13 173 24 6 6 12 8 12 4 0 -4 14 0 30 9 17 9 30
13 30 10 0 -7 90 44 142 82 25 18 70 60 100 92 51 57 121 176 121 206 0 8 3
15 7 15 4 0 7 6 8 13 0 6 7 39 14 72 13 59 18 200 7 220 -3 6 -6 22 -7 37 -3
42 -49 156 -89 217 -40 63 -161 186 -192 196 -12 3 -21 11 -21 16 0 5 -3 8 -7
7 -10 -2 -46 13 -53 22 -9 12 -136 49 -186 55 -94 11 -128 10 -210 -6z"/>
<path d="M507 13486 c-2 -6 -3 -1435 -3 -3176 l1 -3165 1250 0 c1131 0 1327 3
1475 20 25 3 65 7 90 10 25 2 45 4 45 5 0 1 11 3 25 5 88 11 304 57 417 90 49
14 96 27 106 30 10 2 44 14 75 26 31 11 62 22 67 24 14 3 41 14 113 46 34 15
62 26 62 23 0 -2 24 9 52 24 29 16 82 44 118 63 36 18 67 36 70 40 3 3 20 12
38 20 17 8 32 17 32 21 0 5 4 8 9 8 5 0 53 30 106 68 53 37 108 75 122 84 14
9 29 20 32 25 3 4 31 28 61 53 67 55 219 206 280 279 25 29 50 58 55 65 47 51
265 382 265 402 0 3 12 26 27 52 16 26 28 49 28 52 1 3 18 39 38 82 20 42 37
78 37 81 0 2 8 22 17 43 9 22 18 44 19 49 2 6 19 57 39 114 20 57 38 111 40
120 2 9 16 61 30 115 15 55 29 111 31 125 2 14 9 46 14 71 5 25 14 72 19 105
6 33 13 75 16 94 3 19 8 55 11 80 2 25 6 69 9 96 3 28 7 78 9 112 2 34 6 65 8
70 12 23 -1 630 -16 763 -3 19 -7 58 -10 85 -9 69 -26 181 -37 235 -5 25 -11
56 -13 70 -10 64 -74 309 -94 360 -3 8 -6 17 -7 20 -4 11 -14 40 -45 125 -36
98 -107 262 -120 275 -3 3 -20 37 -39 75 -30 60 -93 167 -118 200 -4 6 -17 26
-27 45 -11 19 -22 37 -25 40 -3 3 -33 41 -66 85 -32 44 -77 100 -99 125 -47
53 -244 248 -272 270 -10 9 -51 41 -91 73 -40 31 -76 57 -81 57 -6 0 -12 7
-16 15 -3 8 -12 15 -21 15 -8 0 -15 4 -15 9 0 5 -9 13 -20 16 -11 3 -26 12
-32 19 -18 17 -193 116 -206 116 -6 0 -12 3 -14 8 -4 10 -157 83 -258 122 -47
18 -94 36 -105 41 -31 13 -205 66 -260 79 -27 7 -57 14 -65 18 -8 3 -18 5 -21
4 -4 -1 -22 3 -40 9 -19 5 -50 12 -69 15 -19 2 -55 9 -80 14 -41 9 -95 16
-175 25 -16 2 -55 6 -85 10 -131 16 -259 17 -1452 20 -930 2 -1258 0 -1261 -9z
m2373 -1146 c0 -3 21 -5 48 -6 50 -1 157 -11 207 -19 88 -16 186 -37 235 -51
30 -8 62 -17 70 -19 88 -20 347 -145 420 -202 212 -165 317 -291 430 -508 44
-85 98 -217 105 -255 0 -3 8 -27 17 -55 14 -43 30 -104 29 -112 0 -2 5 -17 10
-35 5 -18 12 -46 14 -63 3 -16 7 -41 10 -55 7 -30 11 -59 20 -125 3 -27 8 -63
10 -80 25 -191 25 -671 0 -860 -3 -22 -7 -62 -10 -90 -4 -27 -9 -63 -12 -80
-3 -16 -7 -39 -9 -50 -7 -39 -16 -90 -19 -100 -8 -38 -18 -72 -22 -85 -3 -8
-7 -21 -9 -29 -1 -8 -6 -26 -10 -40 -4 -14 -8 -28 -9 -31 -5 -19 -18 -58 -24
-75 -68 -167 -95 -225 -102 -225 -5 0 -9 -7 -9 -16 0 -20 -77 -139 -144 -224
-73 -92 -143 -160 -241 -232 -27 -21 -55 -42 -62 -48 -7 -5 -17 -10 -23 -10
-5 0 -10 -5 -10 -11 0 -5 -4 -8 -9 -4 -5 3 -12 1 -16 -5 -6 -9 -186 -103 -193
-100 -1 1 -33 -10 -70 -24 -71 -27 -231 -70 -298 -80 -22 -4 -50 -8 -63 -11
-13 -2 -49 -7 -80 -10 -31 -4 -67 -9 -81 -12 -14 -3 -274 -7 -577 -9 l-553 -4
0 23 c-1 31 -1 3922 0 3982 l0 50 515 0 c283 0 515 -2 515 -5z"/>
<path d="M3038 11026 c-1 -2 -31 -6 -64 -10 -171 -18 -338 -115 -452 -262 -18
-23 -32 -46 -32 -52 0 -5 -8 -20 -19 -33 -17 -23 -45 -97 -57 -150 -24 -113
-21 -238 9 -329 6 -19 11 -37 12 -40 0 -3 7 -16 15 -30 7 -14 13 -27 12 -30
-4 -17 68 -120 123 -175 61 -61 162 -135 185 -135 6 0 29 -9 50 -20 22 -11 40
-18 40 -15 0 3 8 2 18 -3 39 -21 171 -30 257 -17 28 4 58 8 67 9 10 1 21 5 24
9 4 4 14 7 21 7 22 0 121 47 170 81 131 91 234 242 270 399 3 13 14 128 15
155 1 71 -28 189 -65 262 -43 87 -59 110 -127 182 -61 66 -212 156 -280 167
-14 3 -31 7 -39 10 -8 2 -40 7 -70 10 -31 3 -61 7 -68 9 -6 2 -13 2 -15 1z"/>
<path d="M8914 13488 c-3 -5 -2 -14 3 -21 5 -7 16 -32 23 -57 8 -25 14 -47 15
-50 1 -3 4 -12 8 -20 3 -8 27 -76 52 -150 26 -74 57 -166 71 -205 14 -38 27
-77 29 -85 13 -47 125 -361 134 -379 7 -12 10 -21 7 -21 -2 0 16 -57 41 -127
24 -71 47 -135 49 -143 2 -8 23 -71 48 -140 49 -142 46 -132 80 -225 14 -39
26 -77 26 -86 0 -9 3 -19 7 -23 4 -3 8 -12 9 -19 2 -7 23 -68 47 -137 24 -69
68 -195 96 -280 29 -85 56 -164 61 -175 11 -28 23 -58 26 -70 1 -5 44 -129 94
-275 50 -146 93 -269 94 -275 5 -19 18 -50 27 -67 5 -10 9 -25 9 -33 0 -9 7
-31 15 -51 8 -19 15 -36 15 -39 1 -3 24 -69 52 -147 28 -79 54 -156 59 -173 4
-16 17 -55 28 -85 72 -198 164 -469 168 -492 3 -16 9 -28 13 -28 4 0 10 -17
14 -37 3 -21 13 -51 21 -67 8 -15 17 -38 19 -50 3 -11 16 -52 30 -91 50 -141
108 -308 112 -324 2 -9 15 -47 29 -86 15 -38 31 -86 36 -105 6 -19 14 -44 18
-55 5 -11 14 -33 19 -50 6 -16 13 -39 18 -50 4 -11 8 -24 10 -30 1 -5 12 -37
24 -70 11 -33 22 -64 24 -70 2 -5 6 -17 9 -25 3 -8 31 -87 60 -175 30 -88 69
-200 86 -250 18 -49 48 -137 67 -195 19 -58 39 -113 44 -122 6 -10 10 -25 10
-33 0 -8 4 -23 10 -33 8 -15 120 -339 120 -349 0 -1 391 -3 868 -3 l868 0 28
83 c15 45 30 89 33 97 4 8 7 18 8 23 2 4 3 8 5 10 1 1 3 9 5 17 1 8 17 53 35
100 17 47 33 93 35 102 2 9 20 63 40 120 20 57 46 130 57 163 11 33 24 69 29
80 5 11 11 29 12 40 2 11 7 27 10 35 4 8 32 87 62 175 31 88 68 196 84 240 15
44 36 105 46 135 10 30 22 61 28 67 5 7 7 13 4 13 -3 0 22 78 55 173 91 262
237 685 258 747 44 131 122 357 129 375 5 11 30 83 56 160 26 77 49 147 52
155 3 8 7 20 9 25 9 34 114 328 118 333 3 3 6 11 6 18 0 7 4 23 9 36 5 13 9
26 10 31 0 4 8 21 16 37 8 16 15 31 14 32 -3 6 55 182 88 268 3 8 7 20 8 25 7
26 57 172 65 186 9 18 34 104 29 104 -1 0 4 11 11 25 8 14 15 28 16 33 1 4 3
9 4 12 1 3 4 10 5 15 1 6 4 12 5 15 1 3 3 8 5 13 1 4 4 14 8 22 3 8 25 74 49
145 23 72 45 132 48 135 3 3 6 13 8 24 2 10 8 30 15 45 6 14 12 33 13 41 1 8
14 47 29 85 15 39 28 77 30 85 2 8 25 74 50 145 25 72 48 137 50 145 2 8 4 15
5 15 1 0 3 7 5 15 2 8 18 56 35 105 30 85 115 330 251 725 33 96 69 198 78
225 10 28 20 57 22 65 4 13 -84 15 -741 15 l-744 0 -18 -55 c-9 -30 -40 -127
-69 -215 -28 -88 -52 -164 -53 -170 -2 -11 -44 -141 -53 -165 -3 -8 -7 -20 -8
-25 -1 -6 -24 -78 -51 -160 -26 -83 -49 -154 -50 -160 -1 -5 -11 -35 -22 -65
-10 -30 -20 -59 -22 -65 -8 -29 -51 -167 -57 -185 -3 -8 -7 -21 -9 -27 -2 -11
-52 -169 -186 -583 -28 -85 -52 -162 -53 -170 -2 -8 -15 -49 -30 -90 -14 -41
-26 -77 -27 -80 0 -3 -2 -9 -4 -15 -1 -5 -31 -97 -65 -204 -33 -106 -62 -199
-64 -205 -1 -6 -5 -18 -8 -26 -3 -8 -21 -64 -40 -125 -41 -128 -174 -547 -187
-587 -5 -16 -6 -28 -2 -28 4 0 2 -4 -3 -8 -9 -5 -28 -56 -40 -102 -1 -3 -12
-39 -25 -80 -13 -41 -24 -77 -25 -80 0 -3 -13 -41 -27 -85 -14 -44 -54 -168
-88 -275 -34 -107 -68 -212 -76 -233 -7 -20 -14 -40 -14 -45 0 -4 -32 -106
-71 -227 -39 -121 -75 -235 -80 -252 -9 -29 -15 -33 -45 -33 -19 0 -34 5 -34
11 0 13 -73 248 -101 327 -10 28 -18 55 -18 57 1 3 -3 18 -9 33 -11 31 -77
235 -77 242 -1 3 -22 70 -48 150 -25 80 -47 148 -47 152 -1 4 -10 31 -21 60
-11 29 -22 63 -25 75 -2 12 -9 34 -14 48 -5 14 -7 25 -4 25 4 0 2 6 -4 13 -10
11 -46 121 -47 142 0 6 -3 15 -7 20 -3 6 -27 78 -53 160 -26 83 -65 205 -86
272 -22 67 -42 130 -44 140 -2 10 -20 65 -40 123 -19 58 -37 113 -40 123 -11
46 -97 314 -105 329 -6 10 -10 26 -10 36 0 10 -5 23 -12 30 -7 7 -9 12 -5 12
4 0 1 16 -7 35 -8 19 -12 35 -9 35 3 0 -1 7 -8 17 -8 9 -13 17 -11 17 2 1 1 8
-1 16 -3 8 -10 35 -17 60 -7 25 -16 54 -20 65 -11 27 -40 117 -44 141 -3 10
-12 36 -20 56 -9 21 -17 41 -17 45 -2 10 -3 15 -23 78 -9 28 -16 55 -17 60 -1
6 -12 39 -24 75 -19 55 -76 235 -117 370 -6 19 -16 41 -22 49 -6 8 -9 15 -7
15 7 1 -21 99 -32 114 -5 6 -7 12 -3 12 3 0 -1 17 -10 38 -8 20 -17 46 -20 57
-5 25 -53 184 -64 210 -10 24 -28 80 -65 200 -15 50 -31 99 -35 110 -4 11 -22
67 -39 125 -18 58 -35 112 -38 120 -3 8 -7 20 -9 25 -2 6 -9 30 -17 55 l-14
45 -742 1 c-433 1 -744 -3 -747 -8z"/>
<path d="M6840 11872 c-2 -113 -1 -449 0 -457 1 -6 2 -14 1 -20 -3 -13 -3
-929 0 -941 1 -5 1 -13 0 -19 -3 -14 -3 -2209 0 -2221 1 -5 1 -13 0 -19 -1 -5
-2 -244 -2 -530 l-1 -520 661 -3 c625 -2 661 -1 662 15 4 101 0 2583 -4 2590
-4 6 -4 13 0 17 8 8 8 290 0 303 -4 6 -4 13 0 16 8 8 8 1571 0 1584 -4 6 -4
13 0 17 8 8 7 201 -1 215 -4 5 -254 9 -661 9 l-655 0 0 -36z"/>
</g>
</svg>
