<svg width="724" height="235" viewBox="0 0 724 235" fill="none" xmlns="http://www.w3.org/2000/svg">
<path fill-rule="evenodd" clip-rule="evenodd" d="M218.198 231.489V67.8528H263.581V231.489H218.198ZM240.996 46.759C234.249 46.759 228.46 44.5217 223.631 40.0474C218.872 35.502 216.493 30.0686 216.493 23.7476C216.493 17.4976 218.872 12.1355 223.631 7.66089C228.46 3.11548 234.249 0.842773 240.996 0.842773C247.743 0.842773 253.496 3.11548 258.254 7.66089C263.084 12.1355 265.499 17.4976 265.499 23.7476C265.499 30.0686 263.084 35.502 258.254 40.0474C253.496 44.5217 247.743 46.759 240.996 46.759ZM78.1318 231.489H0.788086V13.3074H78.7711C100.717 13.3074 119.609 17.675 135.447 26.4109C151.285 35.0757 163.466 47.5403 171.988 63.8044C180.582 80.0686 184.879 99.5288 184.879 122.185C184.879 144.912 180.582 164.444 171.988 180.779C163.466 197.114 151.214 209.65 135.234 218.385C119.325 227.121 100.291 231.489 78.1318 231.489ZM46.9174 191.965H76.2142C89.8506 191.965 101.321 189.55 110.625 184.721C120 179.82 127.031 172.256 131.719 162.029C136.477 151.73 138.856 138.449 138.856 122.185C138.856 106.063 136.477 92.8882 131.719 82.6609C127.031 72.4336 120.035 64.9053 110.731 60.0757C101.427 55.2461 89.9571 52.8315 76.3208 52.8315H46.9174V191.965ZM403.194 179.074L350.46 13.3074H299.217L374.536 231.489H433.982L509.195 13.3074H458.059L405.218 179.074H403.194ZM723.649 122.398C723.649 146.191 719.139 166.432 710.119 183.123C701.17 199.813 688.954 212.562 673.471 221.368C658.059 230.104 640.729 234.472 621.482 234.472C602.093 234.472 584.693 230.069 569.281 221.262C553.869 212.455 541.688 199.707 532.739 183.016C523.791 166.326 519.316 146.12 519.316 122.398C519.316 98.6055 523.791 78.364 532.739 61.6738C541.688 44.9834 553.869 32.2703 569.281 23.5347C584.693 14.7278 602.093 10.3242 621.482 10.3242C640.729 10.3242 658.059 14.7278 673.471 23.5347C688.954 32.2703 701.17 44.9834 710.119 61.6738C719.139 78.364 723.649 98.6055 723.649 122.398ZM676.88 122.398C676.88 106.986 674.572 93.989 669.955 83.4067C665.41 72.8242 658.982 64.7988 650.673 59.3301C642.363 53.8613 632.633 51.127 621.482 51.127C610.332 51.127 600.602 53.8613 592.292 59.3301C583.982 64.7988 577.519 72.8242 572.903 83.4067C568.357 93.989 566.085 106.986 566.085 122.398C566.085 137.81 568.357 150.807 572.903 161.39C577.519 171.972 583.982 179.998 592.292 185.466C600.602 190.935 610.332 193.669 621.482 193.669C632.633 193.669 642.363 190.935 650.673 185.466C658.982 179.998 665.41 171.972 669.955 161.39C674.572 150.807 676.88 137.81 676.88 122.398ZM110.498 120.657C110.498 133.021 100.476 143.043 88.1125 143.043C75.749 143.043 65.7264 133.021 65.7264 120.657C65.7264 108.294 75.749 98.2715 88.1125 98.2715C100.476 98.2715 110.498 108.294 110.498 120.657ZM615.386 143.043C627.749 143.043 637.772 133.021 637.772 120.657C637.772 108.294 627.749 98.2715 615.386 98.2715C603.023 98.2715 593 108.294 593 120.657C593 133.021 603.023 143.043 615.386 143.043Z" fill="black"/>
</svg>
