<svg width="33" height="12" viewBox="0 0 33 12" fill="none" xmlns="http://www.w3.org/2000/svg">
<path fill-rule="evenodd" clip-rule="evenodd" d="M10.6864 11.3437V3.89362H12.7526V11.3437H10.6864ZM11.7243 2.93326C11.4171 2.93326 11.1536 2.8314 10.9337 2.62769C10.7171 2.42074 10.6088 2.17338 10.6088 1.88559C10.6088 1.60104 10.7171 1.35691 10.9337 1.15319C11.1536 0.946247 11.4171 0.842773 11.7243 0.842773C12.0315 0.842773 12.2934 0.946247 12.5101 1.15319C12.73 1.35691 12.8399 1.60104 12.8399 1.88559C12.8399 2.17338 12.73 2.42074 12.5101 2.62769C12.2934 2.8314 12.0315 2.93326 11.7243 2.93326ZM4.30941 11.3437H0.788086V1.41026H4.33851C5.33768 1.41026 6.1978 1.60912 6.91888 2.00685C7.63996 2.40134 8.19451 2.96883 8.58253 3.70931C8.97379 4.44979 9.16942 5.33578 9.16942 6.36728C9.16942 7.40201 8.97379 8.29123 8.58253 9.03495C8.19451 9.77866 7.63672 10.3494 6.90918 10.7471C6.18486 11.1448 5.31828 11.3437 4.30941 11.3437ZM2.88827 9.54423H4.22211C4.84295 9.54423 5.36516 9.43429 5.78876 9.21441C6.21558 8.99129 6.5357 8.64692 6.74912 8.18129C6.96576 7.71243 7.07409 7.10776 7.07409 6.36728C7.07409 5.63326 6.96576 5.03344 6.74912 4.56781C6.5357 4.10218 6.2172 3.75943 5.79361 3.53955C5.37001 3.31967 4.8478 3.20973 4.22696 3.20973H2.88827V9.54423ZM18.6536 8.95734L16.2527 1.41026H13.9197L17.3489 11.3437H20.0554L23.4797 1.41026H21.1515L18.7458 8.95734H18.6536ZM32.7881 6.37698C32.7881 7.46021 32.5828 8.38177 32.1721 9.14165C31.7647 9.90154 31.2085 10.482 30.5036 10.8829C29.8019 11.2806 29.0129 11.4795 28.1366 11.4795C27.2539 11.4795 26.4617 11.279 25.76 10.8781C25.0583 10.4771 24.5038 9.89669 24.0963 9.1368C23.6889 8.37692 23.4852 7.45698 23.4852 6.37698C23.4852 5.29374 23.6889 4.37218 24.0963 3.6123C24.5038 2.85242 25.0583 2.27361 25.76 1.87589C26.4617 1.47493 27.2539 1.27445 28.1366 1.27445C29.0129 1.27445 29.8019 1.47493 30.5036 1.87589C31.2085 2.27361 31.7647 2.85242 32.1721 3.6123C32.5828 4.37218 32.7881 5.29374 32.7881 6.37698ZM30.6588 6.37698C30.6588 5.6753 30.5537 5.08356 30.3435 4.60176C30.1366 4.11997 29.8439 3.75458 29.4656 3.50559C29.0873 3.25661 28.6443 3.13212 28.1366 3.13212C27.629 3.13212 27.186 3.25661 26.8077 3.50559C26.4293 3.75458 26.1351 4.11997 25.9249 4.60176C25.7179 5.08356 25.6145 5.6753 25.6145 6.37698C25.6145 7.07866 25.7179 7.67039 25.9249 8.15219C26.1351 8.63399 26.4293 8.99938 26.8077 9.24836C27.186 9.49734 27.629 9.62183 28.1366 9.62183C28.6443 9.62183 29.0873 9.49734 29.4656 9.24836C29.8439 8.99938 30.1366 8.63399 30.3435 8.15219C30.5537 7.67039 30.6588 7.07866 30.6588 6.37698ZM5.78301 6.29773C5.78301 6.86061 5.3267 7.31692 4.76381 7.31692C4.20092 7.31692 3.74462 6.86061 3.74462 6.29773C3.74462 5.73484 4.20092 5.27853 4.76381 5.27853C5.3267 5.27853 5.78301 5.73484 5.78301 6.29773ZM28.1778 7.31692C28.7407 7.31692 29.197 6.86061 29.197 6.29773C29.197 5.73484 28.7407 5.27853 28.1778 5.27853C27.6149 5.27853 27.1586 5.73484 27.1586 6.29773C27.1586 6.86061 27.6149 7.31692 28.1778 7.31692Z" fill="black"/>
</svg>
