<svg width="100" height="50" viewBox="0 0 500 500" fill="green" xmlns="http://www.w3.org/2000/svg"><path fill-rule="evenodd" clip-rule="evenodd" d="M218.2 231.5V67.9h45.4v163.6h-45.4ZM241 46.8c-6.8 0-12.5-2.3-17.4-6.8-4.7-4.5-7.1-10-7.1-16.3 0-6.2 2.4-11.6 7.1-16A24.4 24.4 0 0 1 241 .8a24 24 0 0 1 17.3 6.9 21.6 21.6 0 0 1 0 32.4 24.3 24.3 0 0 1-17.3 6.7ZM78.1 231.5H.8V13.3h78c22 0 40.8 4.4 56.6 13.1A88.4 88.4 0 0 1 172 63.8a123.4 123.4 0 0 1 12.9 58.4c0 22.7-4.3 42.2-13 58.6a88.6 88.6 0 0 1-36.7 37.6 117 117 0 0 1-57 13ZM47 192h29.3a74 74 0 0 0 34.4-7.3 46.6 46.6 0 0 0 21.1-22.7 95.5 95.5 0 0 0 7.2-39.8c0-16.1-2.4-29.3-7.2-39.5a46.2 46.2 0 0 0-21-22.6 74 74 0 0 0-34.4-7.3H47V192Zm356.3-13L350.5 13.4h-51.3l75.3 218.2H434l75.2-218.2H458l-52.9 165.8h-2Zm320.4-56.6c0 23.8-4.5 44-13.5 60.7a93.8 93.8 0 0 1-36.6 38.3 103.6 103.6 0 0 1-52 13c-19.4 0-36.8-4.3-52.2-13.1a94 94 0 0 1-36.6-38.3c-9-16.7-13.4-36.9-13.4-60.6 0-23.8 4.5-44 13.4-60.7a93.3 93.3 0 0 1 36.6-38.2 103.3 103.3 0 0 1 52.2-13.2c19.2 0 36.6 4.4 52 13.2A93.1 93.1 0 0 1 710 61.7c9 16.7 13.5 37 13.5 60.7Zm-46.7 0c0-15.4-2.3-28.4-7-39a52.8 52.8 0 0 0-19.2-24c-8.3-5.5-18-8.3-29.2-8.3a51.9 51.9 0 0 0-29.2 8.2 53.4 53.4 0 0 0-19.4 24.1 98.8 98.8 0 0 0-6.8 39c0 15.4 2.3 28.4 6.8 39a53.4 53.4 0 0 0 19.4 24c8.3 5.5 18 8.3 29.2 8.3 11.1 0 20.9-2.8 29.2-8.2a52.8 52.8 0 0 0 19.3-24.1c4.6-10.6 6.9-23.6 6.9-39Zm-566.4-1.7a22.4 22.4 0 1 1-44.8 0 22.4 22.4 0 0 1 44.8 0ZM615.4 143a22.4 22.4 0 1 0 0-44.7 22.4 22.4 0 0 0 0 44.7Z" fill="#000"/></svg>